%FSLAX34Y34*%
G04 Gerber Fmt 3.4, Leading zero omitted, Abs format*
G04 (created by PCBNEW (2014-01-29 BZR 4647)-product) date 30/01/2014 22:34:09*
%MOIN*%
G01*
G70*
G90*
G04 APERTURE LIST*
%ADD10C,0.005906*%
%ADD11C,0.060000*%
%ADD12R,0.055000X0.055000*%
%ADD13C,0.055000*%
%ADD14C,0.056000*%
%ADD15C,0.070000*%
%ADD16R,0.070000X0.070000*%
%ADD17R,0.098425X0.098425*%
%ADD18C,0.098425*%
%ADD19R,0.090000X0.062000*%
%ADD20O,0.090000X0.062000*%
%ADD21C,0.160000*%
G04 APERTURE END LIST*
G54D10*
G54D11*
X29389Y3149D03*
X34389Y3149D03*
X20728Y1181D03*
X25728Y1181D03*
X20728Y9055D03*
X25728Y9055D03*
X14035Y16929D03*
X19035Y16929D03*
X20728Y3149D03*
X25728Y3149D03*
X29389Y7086D03*
X34389Y7086D03*
X20728Y5118D03*
X25728Y5118D03*
X29389Y5118D03*
X34389Y5118D03*
X20728Y7086D03*
X25728Y7086D03*
X29389Y9055D03*
X34389Y9055D03*
X20728Y11023D03*
X25728Y11023D03*
X29389Y11023D03*
X34389Y11023D03*
X11417Y7736D03*
X11417Y12736D03*
X20728Y12992D03*
X25728Y12992D03*
X29389Y12992D03*
X34389Y12992D03*
X20728Y14960D03*
X25728Y14960D03*
X29389Y14960D03*
X34389Y14960D03*
X20728Y16929D03*
X25728Y16929D03*
X29389Y16929D03*
X34389Y16929D03*
G54D12*
X27059Y1574D03*
G54D13*
X28059Y1574D03*
G54D14*
X14173Y5330D03*
X14173Y3330D03*
G54D15*
X7480Y1437D03*
G54D16*
X7480Y6437D03*
G54D15*
X14035Y14960D03*
G54D16*
X19035Y14960D03*
G54D15*
X19035Y12992D03*
G54D16*
X14035Y12992D03*
G54D15*
X9448Y7736D03*
G54D16*
X9448Y12736D03*
G54D15*
X7480Y12736D03*
G54D16*
X7480Y7736D03*
G54D15*
X9448Y6437D03*
G54D16*
X9448Y1437D03*
G54D12*
X16929Y18003D03*
G54D13*
X16929Y19003D03*
G54D12*
X11129Y14960D03*
G54D13*
X10129Y14960D03*
G54D12*
X7767Y14960D03*
G54D13*
X8767Y14960D03*
X12401Y6405D03*
X12401Y5405D03*
X12401Y2255D03*
X12401Y3255D03*
X12598Y15641D03*
X12598Y16641D03*
X6484Y16614D03*
X5484Y16614D03*
G54D17*
X37007Y3149D03*
G54D18*
X37007Y5118D03*
X37007Y7086D03*
X37007Y9055D03*
X37007Y11023D03*
X37007Y12992D03*
X37007Y14960D03*
X37007Y16929D03*
G54D17*
X3937Y12598D03*
G54D18*
X3937Y14566D03*
G54D17*
X3937Y3149D03*
G54D18*
X3937Y5118D03*
G54D17*
X3937Y7874D03*
G54D18*
X3937Y9842D03*
G54D16*
X4511Y18110D03*
G54D15*
X5511Y18110D03*
X6511Y18110D03*
G54D19*
X18822Y1905D03*
G54D20*
X18822Y2905D03*
X18822Y3905D03*
X18822Y4905D03*
X18822Y5905D03*
X18822Y6905D03*
X18822Y7905D03*
X18822Y8905D03*
X18822Y9905D03*
X15822Y9905D03*
X15822Y8905D03*
X15822Y7905D03*
X15822Y6905D03*
X15822Y5905D03*
X15822Y4905D03*
X15822Y3905D03*
X15822Y2905D03*
X15822Y1905D03*
G54D21*
X31889Y1181D03*
X31889Y18503D03*
X13385Y10629D03*
G54D11*
X11023Y6437D03*
X11023Y1437D03*
G54D12*
X28452Y6389D03*
G54D13*
X28452Y7389D03*
X27452Y7389D03*
G54D12*
X27074Y16822D03*
G54D13*
X27074Y17822D03*
X26074Y17822D03*
G54D12*
X28452Y10326D03*
G54D13*
X28452Y11326D03*
X27452Y11326D03*
G54D12*
X28452Y14263D03*
G54D13*
X28452Y15263D03*
X27452Y15263D03*
G54D12*
X27074Y5011D03*
G54D13*
X27074Y6011D03*
X26074Y6011D03*
G54D12*
X27074Y8948D03*
G54D13*
X27074Y9948D03*
X26074Y9948D03*
G54D12*
X27074Y12885D03*
G54D13*
X27074Y13885D03*
X26074Y13885D03*
G54D12*
X28452Y2452D03*
G54D13*
X28452Y3452D03*
X27452Y3452D03*
M02*
