M48
;DRILL file {Pcbnew (2014-01-29 BZR 4647)-product} date 30/01/2014 22:34:24
;FORMAT={-:-/ absolute / inch / decimal}
FMAT,2
INCH,TZ
T1C0.030
T2C0.032
T3C0.039
T4C0.045
T5C0.051
T6C0.120
%
G90
G05
M72
T1
X1.4173Y0.5331
X1.4173Y0.3331
T2
X0.5484Y1.6614
X0.6484Y1.6614
X0.7768Y1.4961
X0.8768Y1.4961
X1.013Y1.4961
X1.1024Y0.6437
X1.1024Y0.1437
X1.113Y1.4961
X1.1417Y1.2736
X1.1417Y0.7736
X1.2402Y0.6406
X1.2402Y0.5406
X1.2402Y0.3256
X1.2402Y0.2256
X1.2598Y1.6642
X1.2598Y1.5642
X1.4035Y1.6929
X1.5823Y0.9906
X1.5823Y0.8906
X1.5823Y0.7906
X1.5823Y0.6906
X1.5823Y0.5906
X1.5823Y0.4906
X1.5823Y0.3906
X1.5823Y0.2906
X1.5823Y0.1906
X1.6929Y1.9004
X1.6929Y1.8004
X1.8823Y0.9906
X1.8823Y0.8906
X1.8823Y0.7906
X1.8823Y0.6906
X1.8823Y0.5906
X1.8823Y0.4906
X1.8823Y0.3906
X1.8823Y0.2906
X1.8823Y0.1906
X1.9035Y1.6929
X2.0728Y1.6929
X2.0728Y1.4961
X2.0728Y1.2992
X2.0728Y1.1024
X2.0728Y0.9055
X2.0728Y0.7087
X2.0728Y0.5118
X2.0728Y0.315
X2.0728Y0.1181
X2.5728Y1.6929
X2.5728Y1.4961
X2.5728Y1.2992
X2.5728Y1.1024
X2.5728Y0.9055
X2.5728Y0.7087
X2.5728Y0.5118
X2.5728Y0.315
X2.5728Y0.1181
X2.6075Y1.7823
X2.6075Y1.3886
X2.6075Y0.9949
X2.6075Y0.6012
X2.7059Y0.1575
X2.7075Y1.7823
X2.7075Y1.6823
X2.7075Y1.3886
X2.7075Y1.2886
X2.7075Y0.9949
X2.7075Y0.8949
X2.7075Y0.6012
X2.7075Y0.5012
X2.7453Y1.5264
X2.7453Y1.1327
X2.7453Y0.739
X2.7453Y0.3453
X2.8059Y0.1575
X2.8453Y1.5264
X2.8453Y1.4264
X2.8453Y1.1327
X2.8453Y1.0327
X2.8453Y0.739
X2.8453Y0.639
X2.8453Y0.3453
X2.8453Y0.2453
X2.939Y1.6929
X2.939Y1.4961
X2.939Y1.2992
X2.939Y1.1024
X2.939Y0.9055
X2.939Y0.7087
X2.939Y0.5118
X2.939Y0.315
X3.439Y1.6929
X3.439Y1.4961
X3.439Y1.2992
X3.439Y1.1024
X3.439Y0.9055
X3.439Y0.7087
X3.439Y0.5118
X3.439Y0.315
T3
X0.4512Y1.811
X0.5512Y1.811
X0.6512Y1.811
T4
X0.748Y1.2736
X0.748Y0.7736
X0.748Y0.6437
X0.748Y0.1437
X0.9449Y1.2736
X0.9449Y0.7736
X0.9449Y0.6437
X0.9449Y0.1437
X1.4035Y1.4961
X1.4035Y1.2992
X1.9035Y1.4961
X1.9035Y1.2992
T5
X0.3937Y1.4567
X0.3937Y1.2598
X0.3937Y0.9843
X0.3937Y0.7874
X0.3937Y0.5118
X0.3937Y0.315
X3.7008Y1.6929
X3.7008Y1.4961
X3.7008Y1.2992
X3.7008Y1.1024
X3.7008Y0.9055
X3.7008Y0.7087
X3.7008Y0.5118
X3.7008Y0.315
T6
X1.3386Y1.063
X3.189Y1.8504
X3.189Y0.1181
T0
M30
