%FSLAX34Y34*%
G04 Gerber Fmt 3.4, Leading zero omitted, Abs format*
G04 (created by PCBNEW (2014-01-29 BZR 4647)-product) date 30/01/2014 22:34:09*
%MOIN*%
G01*
G70*
G90*
G04 APERTURE LIST*
%ADD10C,0.005906*%
%ADD11C,0.009843*%
%ADD12C,0.011811*%
%ADD13C,0.012000*%
%ADD14C,0.012500*%
%ADD15C,0.005000*%
%ADD16C,0.015000*%
%ADD17C,0.008000*%
%ADD18C,0.010000*%
%ADD19C,0.007500*%
%ADD20C,0.011250*%
G04 APERTURE END LIST*
G54D10*
G54D11*
X506Y416D02*
X506Y888D01*
X708Y416D02*
X708Y663D01*
X686Y708D01*
X641Y731D01*
X573Y731D01*
X528Y708D01*
X506Y686D01*
X866Y731D02*
X1046Y731D01*
X933Y888D02*
X933Y483D01*
X956Y438D01*
X1001Y416D01*
X1046Y416D01*
X1136Y731D02*
X1316Y731D01*
X1203Y888D02*
X1203Y483D01*
X1226Y438D01*
X1271Y416D01*
X1316Y416D01*
X1473Y731D02*
X1473Y258D01*
X1473Y708D02*
X1518Y731D01*
X1608Y731D01*
X1653Y708D01*
X1676Y686D01*
X1698Y641D01*
X1698Y506D01*
X1676Y461D01*
X1653Y438D01*
X1608Y416D01*
X1518Y416D01*
X1473Y438D01*
X1901Y461D02*
X1923Y438D01*
X1901Y416D01*
X1878Y438D01*
X1901Y461D01*
X1901Y416D01*
X1901Y708D02*
X1923Y686D01*
X1901Y663D01*
X1878Y686D01*
X1901Y708D01*
X1901Y663D01*
X2463Y911D02*
X2058Y303D01*
X2958Y911D02*
X2553Y303D01*
X3183Y416D02*
X3138Y438D01*
X3115Y483D01*
X3115Y888D01*
X3565Y731D02*
X3565Y416D01*
X3363Y731D02*
X3363Y483D01*
X3385Y438D01*
X3430Y416D01*
X3498Y416D01*
X3543Y438D01*
X3565Y461D01*
X3993Y416D02*
X3993Y888D01*
X3993Y438D02*
X3948Y416D01*
X3858Y416D01*
X3813Y438D01*
X3790Y461D01*
X3768Y506D01*
X3768Y641D01*
X3790Y686D01*
X3813Y708D01*
X3858Y731D01*
X3948Y731D01*
X3993Y708D01*
X4398Y438D02*
X4353Y416D01*
X4263Y416D01*
X4218Y438D01*
X4195Y483D01*
X4195Y663D01*
X4218Y708D01*
X4263Y731D01*
X4353Y731D01*
X4398Y708D01*
X4420Y663D01*
X4420Y618D01*
X4195Y573D01*
X4623Y731D02*
X4623Y416D01*
X4623Y686D02*
X4645Y708D01*
X4690Y731D01*
X4758Y731D01*
X4803Y708D01*
X4825Y663D01*
X4825Y416D01*
X5028Y438D02*
X5073Y416D01*
X5163Y416D01*
X5208Y438D01*
X5230Y483D01*
X5230Y506D01*
X5208Y551D01*
X5163Y573D01*
X5095Y573D01*
X5050Y596D01*
X5028Y641D01*
X5028Y663D01*
X5050Y708D01*
X5095Y731D01*
X5163Y731D01*
X5208Y708D01*
X5433Y461D02*
X5455Y438D01*
X5433Y416D01*
X5410Y438D01*
X5433Y461D01*
X5433Y416D01*
X5860Y438D02*
X5815Y416D01*
X5725Y416D01*
X5680Y438D01*
X5658Y461D01*
X5635Y506D01*
X5635Y641D01*
X5658Y686D01*
X5680Y708D01*
X5725Y731D01*
X5815Y731D01*
X5860Y708D01*
X6130Y416D02*
X6085Y438D01*
X6062Y483D01*
X6062Y888D01*
X6647Y911D02*
X6242Y303D01*
X6805Y663D02*
X6962Y663D01*
X7030Y416D02*
X6805Y416D01*
X6805Y888D01*
X7030Y888D01*
X7300Y416D02*
X7255Y438D01*
X7232Y483D01*
X7232Y888D01*
X7660Y438D02*
X7615Y416D01*
X7525Y416D01*
X7480Y438D01*
X7457Y483D01*
X7457Y663D01*
X7480Y708D01*
X7525Y731D01*
X7615Y731D01*
X7660Y708D01*
X7682Y663D01*
X7682Y618D01*
X7457Y573D01*
X8087Y438D02*
X8042Y416D01*
X7952Y416D01*
X7907Y438D01*
X7885Y461D01*
X7862Y506D01*
X7862Y641D01*
X7885Y686D01*
X7907Y708D01*
X7952Y731D01*
X8042Y731D01*
X8087Y708D01*
X8222Y731D02*
X8402Y731D01*
X8290Y888D02*
X8290Y483D01*
X8312Y438D01*
X8357Y416D01*
X8402Y416D01*
X8560Y416D02*
X8560Y731D01*
X8560Y641D02*
X8582Y686D01*
X8605Y708D01*
X8650Y731D01*
X8695Y731D01*
X8920Y416D02*
X8875Y438D01*
X8852Y461D01*
X8830Y506D01*
X8830Y641D01*
X8852Y686D01*
X8875Y708D01*
X8920Y731D01*
X8987Y731D01*
X9032Y708D01*
X9055Y686D01*
X9077Y641D01*
X9077Y506D01*
X9055Y461D01*
X9032Y438D01*
X8987Y416D01*
X8920Y416D01*
X9280Y731D02*
X9280Y416D01*
X9280Y686D02*
X9302Y708D01*
X9347Y731D01*
X9415Y731D01*
X9460Y708D01*
X9482Y663D01*
X9482Y416D01*
X10044Y911D02*
X9640Y303D01*
X10202Y731D02*
X10202Y258D01*
X10202Y708D02*
X10247Y731D01*
X10337Y731D01*
X10382Y708D01*
X10404Y686D01*
X10427Y641D01*
X10427Y506D01*
X10404Y461D01*
X10382Y438D01*
X10337Y416D01*
X10247Y416D01*
X10202Y438D01*
X10629Y416D02*
X10629Y731D01*
X10629Y888D02*
X10607Y866D01*
X10629Y843D01*
X10652Y866D01*
X10629Y888D01*
X10629Y843D01*
X11057Y438D02*
X11012Y416D01*
X10922Y416D01*
X10877Y438D01*
X10854Y461D01*
X10832Y506D01*
X10832Y641D01*
X10854Y686D01*
X10877Y708D01*
X10922Y731D01*
X11012Y731D01*
X11057Y708D01*
X11439Y438D02*
X11394Y416D01*
X11304Y416D01*
X11259Y438D01*
X11237Y483D01*
X11237Y663D01*
X11259Y708D01*
X11304Y731D01*
X11394Y731D01*
X11439Y708D01*
X11462Y663D01*
X11462Y618D01*
X11237Y573D01*
X11732Y416D02*
X11687Y438D01*
X11664Y483D01*
X11664Y888D01*
X12114Y438D02*
X12069Y416D01*
X11979Y416D01*
X11934Y438D01*
X11912Y461D01*
X11889Y506D01*
X11889Y641D01*
X11912Y686D01*
X11934Y708D01*
X11979Y731D01*
X12069Y731D01*
X12114Y708D01*
X12654Y911D02*
X12249Y303D01*
X12812Y731D02*
X12812Y258D01*
X12812Y708D02*
X12857Y731D01*
X12947Y731D01*
X12992Y708D01*
X13014Y686D01*
X13037Y641D01*
X13037Y506D01*
X13014Y461D01*
X12992Y438D01*
X12947Y416D01*
X12857Y416D01*
X12812Y438D01*
X13239Y416D02*
X13239Y731D01*
X13239Y888D02*
X13217Y866D01*
X13239Y843D01*
X13262Y866D01*
X13239Y888D01*
X13239Y843D01*
X13667Y438D02*
X13622Y416D01*
X13532Y416D01*
X13487Y438D01*
X13464Y461D01*
X13442Y506D01*
X13442Y641D01*
X13464Y686D01*
X13487Y708D01*
X13532Y731D01*
X13622Y731D01*
X13667Y708D01*
X14049Y438D02*
X14004Y416D01*
X13914Y416D01*
X13869Y438D01*
X13847Y483D01*
X13847Y663D01*
X13869Y708D01*
X13914Y731D01*
X14004Y731D01*
X14049Y708D01*
X14071Y663D01*
X14071Y618D01*
X13847Y573D01*
X14341Y416D02*
X14296Y438D01*
X14274Y483D01*
X14274Y888D01*
X14724Y438D02*
X14679Y416D01*
X14589Y416D01*
X14544Y438D01*
X14521Y461D01*
X14499Y506D01*
X14499Y641D01*
X14521Y686D01*
X14544Y708D01*
X14589Y731D01*
X14679Y731D01*
X14724Y708D01*
X14926Y461D02*
X14949Y438D01*
X14926Y416D01*
X14904Y438D01*
X14926Y461D01*
X14926Y416D01*
X15151Y416D02*
X15151Y888D01*
X15354Y416D02*
X15354Y663D01*
X15331Y708D01*
X15286Y731D01*
X15219Y731D01*
X15174Y708D01*
X15151Y686D01*
X15511Y731D02*
X15691Y731D01*
X15579Y888D02*
X15579Y483D01*
X15601Y438D01*
X15646Y416D01*
X15691Y416D01*
X15849Y416D02*
X15849Y731D01*
X15849Y686D02*
X15871Y708D01*
X15916Y731D01*
X15984Y731D01*
X16029Y708D01*
X16051Y663D01*
X16051Y416D01*
X16051Y663D02*
X16074Y708D01*
X16119Y731D01*
X16186Y731D01*
X16231Y708D01*
X16254Y663D01*
X16254Y416D01*
X16546Y416D02*
X16501Y438D01*
X16479Y483D01*
X16479Y888D01*
G54D12*
X913Y5087D02*
X913Y4974D01*
X942Y4918D01*
X970Y4890D01*
X1054Y4834D01*
X1167Y4805D01*
X1392Y4805D01*
X1448Y4834D01*
X1476Y4862D01*
X1504Y4918D01*
X1504Y5030D01*
X1476Y5087D01*
X1448Y5115D01*
X1392Y5143D01*
X1251Y5143D01*
X1195Y5115D01*
X1167Y5087D01*
X1138Y5030D01*
X1138Y4918D01*
X1167Y4862D01*
X1195Y4834D01*
X1251Y4805D01*
X1504Y4637D02*
X913Y4440D01*
X1504Y4243D01*
X1082Y4074D02*
X1082Y3793D01*
X913Y4131D02*
X1504Y3934D01*
X913Y3737D01*
X970Y3203D02*
X942Y3231D01*
X913Y3315D01*
X913Y3371D01*
X942Y3456D01*
X998Y3512D01*
X1054Y3540D01*
X1167Y3568D01*
X1251Y3568D01*
X1363Y3540D01*
X1420Y3512D01*
X1476Y3456D01*
X1504Y3371D01*
X1504Y3315D01*
X1476Y3231D01*
X1448Y3203D01*
X913Y9811D02*
X913Y9699D01*
X942Y9642D01*
X970Y9614D01*
X1054Y9558D01*
X1167Y9530D01*
X1392Y9530D01*
X1448Y9558D01*
X1476Y9586D01*
X1504Y9642D01*
X1504Y9755D01*
X1476Y9811D01*
X1448Y9839D01*
X1392Y9867D01*
X1251Y9867D01*
X1195Y9839D01*
X1167Y9811D01*
X1138Y9755D01*
X1138Y9642D01*
X1167Y9586D01*
X1195Y9558D01*
X1251Y9530D01*
X1504Y9361D02*
X913Y9164D01*
X1504Y8967D01*
X1082Y8799D02*
X1082Y8517D01*
X913Y8855D02*
X1504Y8658D01*
X913Y8461D01*
X970Y7927D02*
X942Y7955D01*
X913Y8039D01*
X913Y8096D01*
X942Y8180D01*
X998Y8236D01*
X1054Y8264D01*
X1167Y8293D01*
X1251Y8293D01*
X1363Y8264D01*
X1420Y8236D01*
X1476Y8180D01*
X1504Y8096D01*
X1504Y8039D01*
X1476Y7955D01*
X1448Y7927D01*
X1526Y14476D02*
X936Y14476D01*
X1526Y14814D01*
X936Y14814D01*
G54D13*
X29389Y3149D02*
X29789Y3149D01*
X34389Y3149D02*
X33989Y3149D01*
X33989Y3649D02*
X33989Y2649D01*
X33989Y2649D02*
X29789Y2649D01*
X29789Y2649D02*
X29789Y3649D01*
X29789Y3649D02*
X33989Y3649D01*
X29789Y3449D02*
X29989Y3649D01*
X20728Y1181D02*
X21128Y1181D01*
X25728Y1181D02*
X25328Y1181D01*
X25328Y1681D02*
X25328Y681D01*
X25328Y681D02*
X21128Y681D01*
X21128Y681D02*
X21128Y1681D01*
X21128Y1681D02*
X25328Y1681D01*
X21128Y1481D02*
X21328Y1681D01*
X20728Y9055D02*
X21128Y9055D01*
X25728Y9055D02*
X25328Y9055D01*
X25328Y9555D02*
X25328Y8555D01*
X25328Y8555D02*
X21128Y8555D01*
X21128Y8555D02*
X21128Y9555D01*
X21128Y9555D02*
X25328Y9555D01*
X21128Y9355D02*
X21328Y9555D01*
X14035Y16929D02*
X14435Y16929D01*
X19035Y16929D02*
X18635Y16929D01*
X18635Y17429D02*
X18635Y16429D01*
X18635Y16429D02*
X14435Y16429D01*
X14435Y16429D02*
X14435Y17429D01*
X14435Y17429D02*
X18635Y17429D01*
X14435Y17229D02*
X14635Y17429D01*
X20728Y3149D02*
X21128Y3149D01*
X25728Y3149D02*
X25328Y3149D01*
X25328Y3649D02*
X25328Y2649D01*
X25328Y2649D02*
X21128Y2649D01*
X21128Y2649D02*
X21128Y3649D01*
X21128Y3649D02*
X25328Y3649D01*
X21128Y3449D02*
X21328Y3649D01*
X29389Y7086D02*
X29789Y7086D01*
X34389Y7086D02*
X33989Y7086D01*
X33989Y7586D02*
X33989Y6586D01*
X33989Y6586D02*
X29789Y6586D01*
X29789Y6586D02*
X29789Y7586D01*
X29789Y7586D02*
X33989Y7586D01*
X29789Y7386D02*
X29989Y7586D01*
X20728Y5118D02*
X21128Y5118D01*
X25728Y5118D02*
X25328Y5118D01*
X25328Y5618D02*
X25328Y4618D01*
X25328Y4618D02*
X21128Y4618D01*
X21128Y4618D02*
X21128Y5618D01*
X21128Y5618D02*
X25328Y5618D01*
X21128Y5418D02*
X21328Y5618D01*
X29389Y5118D02*
X29789Y5118D01*
X34389Y5118D02*
X33989Y5118D01*
X33989Y5618D02*
X33989Y4618D01*
X33989Y4618D02*
X29789Y4618D01*
X29789Y4618D02*
X29789Y5618D01*
X29789Y5618D02*
X33989Y5618D01*
X29789Y5418D02*
X29989Y5618D01*
X20728Y7086D02*
X21128Y7086D01*
X25728Y7086D02*
X25328Y7086D01*
X25328Y7586D02*
X25328Y6586D01*
X25328Y6586D02*
X21128Y6586D01*
X21128Y6586D02*
X21128Y7586D01*
X21128Y7586D02*
X25328Y7586D01*
X21128Y7386D02*
X21328Y7586D01*
X29389Y9055D02*
X29789Y9055D01*
X34389Y9055D02*
X33989Y9055D01*
X33989Y9555D02*
X33989Y8555D01*
X33989Y8555D02*
X29789Y8555D01*
X29789Y8555D02*
X29789Y9555D01*
X29789Y9555D02*
X33989Y9555D01*
X29789Y9355D02*
X29989Y9555D01*
X20728Y11023D02*
X21128Y11023D01*
X25728Y11023D02*
X25328Y11023D01*
X25328Y11523D02*
X25328Y10523D01*
X25328Y10523D02*
X21128Y10523D01*
X21128Y10523D02*
X21128Y11523D01*
X21128Y11523D02*
X25328Y11523D01*
X21128Y11323D02*
X21328Y11523D01*
X29389Y11023D02*
X29789Y11023D01*
X34389Y11023D02*
X33989Y11023D01*
X33989Y11523D02*
X33989Y10523D01*
X33989Y10523D02*
X29789Y10523D01*
X29789Y10523D02*
X29789Y11523D01*
X29789Y11523D02*
X33989Y11523D01*
X29789Y11323D02*
X29989Y11523D01*
X11417Y7736D02*
X11417Y8136D01*
X11417Y12736D02*
X11417Y12336D01*
X10917Y12336D02*
X11917Y12336D01*
X11917Y12336D02*
X11917Y8136D01*
X11917Y8136D02*
X10917Y8136D01*
X10917Y8136D02*
X10917Y12336D01*
X11117Y8136D02*
X10917Y8336D01*
X20728Y12992D02*
X21128Y12992D01*
X25728Y12992D02*
X25328Y12992D01*
X25328Y13492D02*
X25328Y12492D01*
X25328Y12492D02*
X21128Y12492D01*
X21128Y12492D02*
X21128Y13492D01*
X21128Y13492D02*
X25328Y13492D01*
X21128Y13292D02*
X21328Y13492D01*
X29389Y12992D02*
X29789Y12992D01*
X34389Y12992D02*
X33989Y12992D01*
X33989Y13492D02*
X33989Y12492D01*
X33989Y12492D02*
X29789Y12492D01*
X29789Y12492D02*
X29789Y13492D01*
X29789Y13492D02*
X33989Y13492D01*
X29789Y13292D02*
X29989Y13492D01*
X20728Y14960D02*
X21128Y14960D01*
X25728Y14960D02*
X25328Y14960D01*
X25328Y15460D02*
X25328Y14460D01*
X25328Y14460D02*
X21128Y14460D01*
X21128Y14460D02*
X21128Y15460D01*
X21128Y15460D02*
X25328Y15460D01*
X21128Y15260D02*
X21328Y15460D01*
X29389Y14960D02*
X29789Y14960D01*
X34389Y14960D02*
X33989Y14960D01*
X33989Y15460D02*
X33989Y14460D01*
X33989Y14460D02*
X29789Y14460D01*
X29789Y14460D02*
X29789Y15460D01*
X29789Y15460D02*
X33989Y15460D01*
X29789Y15260D02*
X29989Y15460D01*
X20728Y16929D02*
X21128Y16929D01*
X25728Y16929D02*
X25328Y16929D01*
X25328Y17429D02*
X25328Y16429D01*
X25328Y16429D02*
X21128Y16429D01*
X21128Y16429D02*
X21128Y17429D01*
X21128Y17429D02*
X25328Y17429D01*
X21128Y17229D02*
X21328Y17429D01*
X29389Y16929D02*
X29789Y16929D01*
X34389Y16929D02*
X33989Y16929D01*
X33989Y17429D02*
X33989Y16429D01*
X33989Y16429D02*
X29789Y16429D01*
X29789Y16429D02*
X29789Y17429D01*
X29789Y17429D02*
X33989Y17429D01*
X29789Y17229D02*
X29989Y17429D01*
X28559Y1574D02*
G75*
G03X28559Y1574I-1000J0D01*
G74*
G01*
X28559Y1824D02*
X28309Y1824D01*
X28309Y1824D02*
X28309Y1324D01*
X28309Y1324D02*
X28559Y1324D01*
G54D14*
X13173Y5580D02*
X13173Y3080D01*
X15173Y5580D02*
X15173Y3080D01*
X14173Y2080D02*
G75*
G03X15173Y3080I0J1000D01*
G74*
G01*
X13173Y3080D02*
G75*
G03X14173Y2080I1000J0D01*
G74*
G01*
X15173Y5580D02*
G75*
G03X14173Y6580I-1000J0D01*
G74*
G01*
X14173Y6580D02*
G75*
G03X13173Y5580I0J-1000D01*
G74*
G01*
G54D13*
X7480Y6437D02*
X7480Y5937D01*
X7480Y5937D02*
X6980Y5937D01*
X6980Y5937D02*
X6980Y1937D01*
X6980Y1937D02*
X7480Y1937D01*
X7480Y1937D02*
X7480Y1437D01*
X7480Y1937D02*
X7980Y1937D01*
X7980Y1937D02*
X7980Y5937D01*
X7980Y5937D02*
X7480Y5937D01*
X6980Y5437D02*
X7980Y5437D01*
X6980Y5537D02*
X7980Y5537D01*
X19035Y14960D02*
X18535Y14960D01*
X18535Y14960D02*
X18535Y15460D01*
X18535Y15460D02*
X14535Y15460D01*
X14535Y15460D02*
X14535Y14960D01*
X14535Y14960D02*
X14035Y14960D01*
X14535Y14960D02*
X14535Y14460D01*
X14535Y14460D02*
X18535Y14460D01*
X18535Y14460D02*
X18535Y14960D01*
X18035Y15460D02*
X18035Y14460D01*
X18135Y15460D02*
X18135Y14460D01*
X14035Y12992D02*
X14535Y12992D01*
X14535Y12992D02*
X14535Y12492D01*
X14535Y12492D02*
X18535Y12492D01*
X18535Y12492D02*
X18535Y12992D01*
X18535Y12992D02*
X19035Y12992D01*
X18535Y12992D02*
X18535Y13492D01*
X18535Y13492D02*
X14535Y13492D01*
X14535Y13492D02*
X14535Y12992D01*
X15035Y12492D02*
X15035Y13492D01*
X14935Y12492D02*
X14935Y13492D01*
X9448Y12736D02*
X9448Y12236D01*
X9448Y12236D02*
X8948Y12236D01*
X8948Y12236D02*
X8948Y8236D01*
X8948Y8236D02*
X9448Y8236D01*
X9448Y8236D02*
X9448Y7736D01*
X9448Y8236D02*
X9948Y8236D01*
X9948Y8236D02*
X9948Y12236D01*
X9948Y12236D02*
X9448Y12236D01*
X8948Y11736D02*
X9948Y11736D01*
X8948Y11836D02*
X9948Y11836D01*
X7480Y7736D02*
X7480Y8236D01*
X7480Y8236D02*
X7980Y8236D01*
X7980Y8236D02*
X7980Y12236D01*
X7980Y12236D02*
X7480Y12236D01*
X7480Y12236D02*
X7480Y12736D01*
X7480Y12236D02*
X6980Y12236D01*
X6980Y12236D02*
X6980Y8236D01*
X6980Y8236D02*
X7480Y8236D01*
X7980Y8736D02*
X6980Y8736D01*
X7980Y8636D02*
X6980Y8636D01*
X9448Y1437D02*
X9448Y1937D01*
X9448Y1937D02*
X9948Y1937D01*
X9948Y1937D02*
X9948Y5937D01*
X9948Y5937D02*
X9448Y5937D01*
X9448Y5937D02*
X9448Y6437D01*
X9448Y5937D02*
X8948Y5937D01*
X8948Y5937D02*
X8948Y1937D01*
X8948Y1937D02*
X9448Y1937D01*
X9948Y2437D02*
X8948Y2437D01*
X9948Y2337D02*
X8948Y2337D01*
G54D15*
X17930Y18503D02*
G75*
G03X17930Y18503I-1001J0D01*
G74*
G01*
X11631Y14960D02*
G75*
G03X11631Y14960I-1001J0D01*
G74*
G01*
X9268Y14960D02*
G75*
G03X9268Y14960I-1001J0D01*
G74*
G01*
G54D13*
X12901Y6885D02*
X12901Y4905D01*
X12901Y4905D02*
X11901Y4905D01*
X11901Y4905D02*
X11901Y6905D01*
X11901Y6905D02*
X12901Y6905D01*
X12651Y6905D02*
X12901Y6655D01*
X11901Y1775D02*
X11901Y3755D01*
X11901Y3755D02*
X12901Y3755D01*
X12901Y3755D02*
X12901Y1755D01*
X12901Y1755D02*
X11901Y1755D01*
X12151Y1755D02*
X11901Y2005D01*
X12098Y15161D02*
X12098Y17141D01*
X12098Y17141D02*
X13098Y17141D01*
X13098Y17141D02*
X13098Y15141D01*
X13098Y15141D02*
X12098Y15141D01*
X12348Y15141D02*
X12098Y15391D01*
X6964Y16114D02*
X4984Y16114D01*
X4984Y16114D02*
X4984Y17114D01*
X4984Y17114D02*
X6984Y17114D01*
X6984Y17114D02*
X6984Y16114D01*
X6984Y16364D02*
X6734Y16114D01*
G54D10*
X38976Y2165D02*
X35039Y2165D01*
X35039Y2165D02*
X35039Y17913D01*
X35039Y17913D02*
X38976Y17913D01*
X38976Y17913D02*
X38976Y2165D01*
X37992Y2165D02*
X36023Y2165D01*
X36023Y2165D02*
X36023Y17913D01*
X36023Y17913D02*
X37992Y17913D01*
X37992Y17913D02*
X37992Y2165D01*
X5905Y11614D02*
X5905Y15551D01*
X5905Y15551D02*
X1968Y15551D01*
X1968Y15551D02*
X1968Y11614D01*
X1968Y11614D02*
X2952Y11614D01*
X2952Y11614D02*
X2952Y15551D01*
X2952Y15551D02*
X4921Y15551D01*
X4921Y15551D02*
X4921Y11614D01*
X5905Y11614D02*
X1968Y11614D01*
X4921Y11614D02*
X2952Y11614D01*
X5905Y2165D02*
X5905Y6102D01*
X5905Y6102D02*
X1968Y6102D01*
X1968Y6102D02*
X1968Y2165D01*
X1968Y2165D02*
X2952Y2165D01*
X2952Y2165D02*
X2952Y6102D01*
X2952Y6102D02*
X4921Y6102D01*
X4921Y6102D02*
X4921Y2165D01*
X5905Y2165D02*
X1968Y2165D01*
X4921Y2165D02*
X2952Y2165D01*
X5905Y6889D02*
X5905Y10826D01*
X5905Y10826D02*
X1968Y10826D01*
X1968Y10826D02*
X1968Y6889D01*
X1968Y6889D02*
X2952Y6889D01*
X2952Y6889D02*
X2952Y10826D01*
X2952Y10826D02*
X4921Y10826D01*
X4921Y10826D02*
X4921Y6889D01*
X5905Y6889D02*
X1968Y6889D01*
X4921Y6889D02*
X2952Y6889D01*
X1968Y16535D02*
X1574Y16535D01*
X1574Y16535D02*
X1574Y16929D01*
X1574Y19685D02*
X1574Y16535D01*
X1574Y19685D02*
X9448Y19685D01*
X9448Y19685D02*
X9448Y16535D01*
X9448Y16535D02*
X9055Y16535D01*
X9055Y16535D02*
X9055Y19291D01*
X9055Y19291D02*
X1968Y19291D01*
X1968Y19291D02*
X1968Y16535D01*
G54D16*
X3511Y18860D02*
X3511Y19110D01*
X3511Y19110D02*
X7511Y19110D01*
X7511Y19110D02*
X7511Y18860D01*
X3511Y17360D02*
X3511Y18860D01*
X3511Y18860D02*
X7511Y18860D01*
X7511Y18860D02*
X7511Y17360D01*
X7511Y17360D02*
X3511Y17360D01*
X16822Y905D02*
X16822Y1405D01*
X16822Y1405D02*
X17822Y1405D01*
X17822Y1405D02*
X17822Y905D01*
X16322Y905D02*
X16322Y10905D01*
X16322Y10905D02*
X18322Y10905D01*
X18322Y10905D02*
X18322Y905D01*
X18322Y905D02*
X16322Y905D01*
X32789Y1181D02*
G75*
G03X32789Y1181I-900J0D01*
G74*
G01*
X32789Y18503D02*
G75*
G03X32789Y18503I-900J0D01*
G74*
G01*
X14285Y10629D02*
G75*
G03X14285Y10629I-900J0D01*
G74*
G01*
G54D13*
X11023Y6437D02*
X11023Y6037D01*
X11023Y1437D02*
X11023Y1837D01*
X11523Y1837D02*
X10523Y1837D01*
X10523Y1837D02*
X10523Y6037D01*
X10523Y6037D02*
X11523Y6037D01*
X11523Y6037D02*
X11523Y1837D01*
X11323Y6037D02*
X11523Y5837D01*
X26952Y7389D02*
X28452Y5889D01*
X28452Y5889D02*
X28952Y5889D01*
X28952Y5889D02*
X29452Y6389D01*
X29452Y6389D02*
X29452Y7389D01*
X29452Y7389D02*
X28452Y8389D01*
X28452Y8389D02*
X27452Y8389D01*
X27452Y8389D02*
X26952Y7889D01*
X26952Y7889D02*
X26952Y7389D01*
X25574Y17822D02*
X27074Y16322D01*
X27074Y16322D02*
X27574Y16322D01*
X27574Y16322D02*
X28074Y16822D01*
X28074Y16822D02*
X28074Y17822D01*
X28074Y17822D02*
X27074Y18822D01*
X27074Y18822D02*
X26074Y18822D01*
X26074Y18822D02*
X25574Y18322D01*
X25574Y18322D02*
X25574Y17822D01*
X26952Y11326D02*
X28452Y9826D01*
X28452Y9826D02*
X28952Y9826D01*
X28952Y9826D02*
X29452Y10326D01*
X29452Y10326D02*
X29452Y11326D01*
X29452Y11326D02*
X28452Y12326D01*
X28452Y12326D02*
X27452Y12326D01*
X27452Y12326D02*
X26952Y11826D01*
X26952Y11826D02*
X26952Y11326D01*
X26952Y15263D02*
X28452Y13763D01*
X28452Y13763D02*
X28952Y13763D01*
X28952Y13763D02*
X29452Y14263D01*
X29452Y14263D02*
X29452Y15263D01*
X29452Y15263D02*
X28452Y16263D01*
X28452Y16263D02*
X27452Y16263D01*
X27452Y16263D02*
X26952Y15763D01*
X26952Y15763D02*
X26952Y15263D01*
X25574Y6011D02*
X27074Y4511D01*
X27074Y4511D02*
X27574Y4511D01*
X27574Y4511D02*
X28074Y5011D01*
X28074Y5011D02*
X28074Y6011D01*
X28074Y6011D02*
X27074Y7011D01*
X27074Y7011D02*
X26074Y7011D01*
X26074Y7011D02*
X25574Y6511D01*
X25574Y6511D02*
X25574Y6011D01*
X25574Y9948D02*
X27074Y8448D01*
X27074Y8448D02*
X27574Y8448D01*
X27574Y8448D02*
X28074Y8948D01*
X28074Y8948D02*
X28074Y9948D01*
X28074Y9948D02*
X27074Y10948D01*
X27074Y10948D02*
X26074Y10948D01*
X26074Y10948D02*
X25574Y10448D01*
X25574Y10448D02*
X25574Y9948D01*
X25574Y13885D02*
X27074Y12385D01*
X27074Y12385D02*
X27574Y12385D01*
X27574Y12385D02*
X28074Y12885D01*
X28074Y12885D02*
X28074Y13885D01*
X28074Y13885D02*
X27074Y14885D01*
X27074Y14885D02*
X26074Y14885D01*
X26074Y14885D02*
X25574Y14385D01*
X25574Y14385D02*
X25574Y13885D01*
X26952Y3452D02*
X28452Y1952D01*
X28452Y1952D02*
X28952Y1952D01*
X28952Y1952D02*
X29452Y2452D01*
X29452Y2452D02*
X29452Y3452D01*
X29452Y3452D02*
X28452Y4452D01*
X28452Y4452D02*
X27452Y4452D01*
X27452Y4452D02*
X26952Y3952D01*
X26952Y3952D02*
X26952Y3452D01*
G54D17*
X31806Y3766D02*
X31639Y4028D01*
X31520Y3766D02*
X31520Y4316D01*
X31711Y4316D01*
X31758Y4290D01*
X31782Y4264D01*
X31806Y4212D01*
X31806Y4133D01*
X31782Y4081D01*
X31758Y4055D01*
X31711Y4028D01*
X31520Y4028D01*
X31973Y4316D02*
X32306Y4316D01*
X32092Y3766D01*
X22906Y1798D02*
X22740Y2060D01*
X22621Y1798D02*
X22621Y2348D01*
X22811Y2348D01*
X22859Y2322D01*
X22883Y2296D01*
X22906Y2243D01*
X22906Y2165D01*
X22883Y2112D01*
X22859Y2086D01*
X22811Y2060D01*
X22621Y2060D01*
X23383Y1798D02*
X23097Y1798D01*
X23240Y1798D02*
X23240Y2348D01*
X23192Y2269D01*
X23145Y2217D01*
X23097Y2191D01*
X23621Y1798D02*
X23716Y1798D01*
X23764Y1824D01*
X23787Y1850D01*
X23835Y1929D01*
X23859Y2034D01*
X23859Y2243D01*
X23835Y2296D01*
X23811Y2322D01*
X23764Y2348D01*
X23668Y2348D01*
X23621Y2322D01*
X23597Y2296D01*
X23573Y2243D01*
X23573Y2112D01*
X23597Y2060D01*
X23621Y2034D01*
X23668Y2007D01*
X23764Y2007D01*
X23811Y2034D01*
X23835Y2060D01*
X23859Y2112D01*
X23145Y9672D02*
X22978Y9934D01*
X22859Y9672D02*
X22859Y10222D01*
X23049Y10222D01*
X23097Y10196D01*
X23121Y10170D01*
X23145Y10117D01*
X23145Y10039D01*
X23121Y9986D01*
X23097Y9960D01*
X23049Y9934D01*
X22859Y9934D01*
X23573Y10222D02*
X23478Y10222D01*
X23430Y10196D01*
X23406Y10170D01*
X23359Y10091D01*
X23335Y9986D01*
X23335Y9777D01*
X23359Y9724D01*
X23383Y9698D01*
X23430Y9672D01*
X23525Y9672D01*
X23573Y9698D01*
X23597Y9724D01*
X23621Y9777D01*
X23621Y9908D01*
X23597Y9960D01*
X23573Y9986D01*
X23525Y10012D01*
X23430Y10012D01*
X23383Y9986D01*
X23359Y9960D01*
X23335Y9908D01*
X15664Y17546D02*
X15498Y17808D01*
X15378Y17546D02*
X15378Y18096D01*
X15569Y18096D01*
X15617Y18070D01*
X15640Y18044D01*
X15664Y17991D01*
X15664Y17913D01*
X15640Y17860D01*
X15617Y17834D01*
X15569Y17808D01*
X15378Y17808D01*
X15855Y18044D02*
X15878Y18070D01*
X15926Y18096D01*
X16045Y18096D01*
X16093Y18070D01*
X16117Y18044D01*
X16140Y17991D01*
X16140Y17939D01*
X16117Y17860D01*
X15831Y17546D01*
X16140Y17546D01*
X23145Y3766D02*
X22978Y4028D01*
X22859Y3766D02*
X22859Y4316D01*
X23049Y4316D01*
X23097Y4290D01*
X23121Y4264D01*
X23145Y4212D01*
X23145Y4133D01*
X23121Y4081D01*
X23097Y4055D01*
X23049Y4028D01*
X22859Y4028D01*
X23311Y4316D02*
X23621Y4316D01*
X23454Y4107D01*
X23525Y4107D01*
X23573Y4081D01*
X23597Y4055D01*
X23621Y4002D01*
X23621Y3871D01*
X23597Y3819D01*
X23573Y3793D01*
X23525Y3766D01*
X23383Y3766D01*
X23335Y3793D01*
X23311Y3819D01*
X31806Y7703D02*
X31639Y7965D01*
X31520Y7703D02*
X31520Y8253D01*
X31711Y8253D01*
X31758Y8227D01*
X31782Y8201D01*
X31806Y8149D01*
X31806Y8070D01*
X31782Y8018D01*
X31758Y7992D01*
X31711Y7965D01*
X31520Y7965D01*
X32044Y7703D02*
X32139Y7703D01*
X32187Y7730D01*
X32211Y7756D01*
X32258Y7834D01*
X32282Y7939D01*
X32282Y8149D01*
X32258Y8201D01*
X32235Y8227D01*
X32187Y8253D01*
X32092Y8253D01*
X32044Y8227D01*
X32020Y8201D01*
X31996Y8149D01*
X31996Y8018D01*
X32020Y7965D01*
X32044Y7939D01*
X32092Y7913D01*
X32187Y7913D01*
X32235Y7939D01*
X32258Y7965D01*
X32282Y8018D01*
X23145Y5735D02*
X22978Y5997D01*
X22859Y5735D02*
X22859Y6285D01*
X23049Y6285D01*
X23097Y6259D01*
X23121Y6233D01*
X23145Y6180D01*
X23145Y6102D01*
X23121Y6049D01*
X23097Y6023D01*
X23049Y5997D01*
X22859Y5997D01*
X23573Y6102D02*
X23573Y5735D01*
X23454Y6311D02*
X23335Y5918D01*
X23645Y5918D01*
X31806Y5735D02*
X31639Y5997D01*
X31520Y5735D02*
X31520Y6285D01*
X31711Y6285D01*
X31758Y6259D01*
X31782Y6233D01*
X31806Y6180D01*
X31806Y6102D01*
X31782Y6049D01*
X31758Y6023D01*
X31711Y5997D01*
X31520Y5997D01*
X32092Y6049D02*
X32044Y6075D01*
X32020Y6102D01*
X31996Y6154D01*
X31996Y6180D01*
X32020Y6233D01*
X32044Y6259D01*
X32092Y6285D01*
X32187Y6285D01*
X32235Y6259D01*
X32258Y6233D01*
X32282Y6180D01*
X32282Y6154D01*
X32258Y6102D01*
X32235Y6075D01*
X32187Y6049D01*
X32092Y6049D01*
X32044Y6023D01*
X32020Y5997D01*
X31996Y5944D01*
X31996Y5840D01*
X32020Y5787D01*
X32044Y5761D01*
X32092Y5735D01*
X32187Y5735D01*
X32235Y5761D01*
X32258Y5787D01*
X32282Y5840D01*
X32282Y5944D01*
X32258Y5997D01*
X32235Y6023D01*
X32187Y6049D01*
X23145Y7703D02*
X22978Y7965D01*
X22859Y7703D02*
X22859Y8253D01*
X23049Y8253D01*
X23097Y8227D01*
X23121Y8201D01*
X23145Y8149D01*
X23145Y8070D01*
X23121Y8018D01*
X23097Y7992D01*
X23049Y7965D01*
X22859Y7965D01*
X23597Y8253D02*
X23359Y8253D01*
X23335Y7992D01*
X23359Y8018D01*
X23406Y8044D01*
X23525Y8044D01*
X23573Y8018D01*
X23597Y7992D01*
X23621Y7939D01*
X23621Y7808D01*
X23597Y7756D01*
X23573Y7730D01*
X23525Y7703D01*
X23406Y7703D01*
X23359Y7730D01*
X23335Y7756D01*
X31568Y9672D02*
X31401Y9934D01*
X31282Y9672D02*
X31282Y10222D01*
X31473Y10222D01*
X31520Y10196D01*
X31544Y10170D01*
X31568Y10117D01*
X31568Y10039D01*
X31544Y9986D01*
X31520Y9960D01*
X31473Y9934D01*
X31282Y9934D01*
X32044Y9672D02*
X31758Y9672D01*
X31901Y9672D02*
X31901Y10222D01*
X31854Y10143D01*
X31806Y10091D01*
X31758Y10065D01*
X32354Y10222D02*
X32401Y10222D01*
X32449Y10196D01*
X32473Y10170D01*
X32496Y10117D01*
X32520Y10012D01*
X32520Y9881D01*
X32496Y9777D01*
X32473Y9724D01*
X32449Y9698D01*
X32401Y9672D01*
X32354Y9672D01*
X32306Y9698D01*
X32282Y9724D01*
X32258Y9777D01*
X32235Y9881D01*
X32235Y10012D01*
X32258Y10117D01*
X32282Y10170D01*
X32306Y10196D01*
X32354Y10222D01*
X22906Y11640D02*
X22740Y11902D01*
X22621Y11640D02*
X22621Y12190D01*
X22811Y12190D01*
X22859Y12164D01*
X22883Y12138D01*
X22906Y12086D01*
X22906Y12007D01*
X22883Y11955D01*
X22859Y11929D01*
X22811Y11902D01*
X22621Y11902D01*
X23383Y11640D02*
X23097Y11640D01*
X23240Y11640D02*
X23240Y12190D01*
X23192Y12112D01*
X23145Y12060D01*
X23097Y12033D01*
X23859Y11640D02*
X23573Y11640D01*
X23716Y11640D02*
X23716Y12190D01*
X23668Y12112D01*
X23621Y12060D01*
X23573Y12033D01*
X31568Y11640D02*
X31401Y11902D01*
X31282Y11640D02*
X31282Y12190D01*
X31473Y12190D01*
X31520Y12164D01*
X31544Y12138D01*
X31568Y12086D01*
X31568Y12007D01*
X31544Y11955D01*
X31520Y11929D01*
X31473Y11902D01*
X31282Y11902D01*
X32044Y11640D02*
X31758Y11640D01*
X31901Y11640D02*
X31901Y12190D01*
X31854Y12112D01*
X31806Y12060D01*
X31758Y12033D01*
X32496Y12190D02*
X32258Y12190D01*
X32235Y11929D01*
X32258Y11955D01*
X32306Y11981D01*
X32425Y11981D01*
X32473Y11955D01*
X32496Y11929D01*
X32520Y11876D01*
X32520Y11745D01*
X32496Y11693D01*
X32473Y11667D01*
X32425Y11640D01*
X32306Y11640D01*
X32258Y11667D01*
X32235Y11693D01*
X11666Y10152D02*
X11404Y9986D01*
X11666Y9867D02*
X11116Y9867D01*
X11116Y10057D01*
X11142Y10105D01*
X11168Y10129D01*
X11220Y10152D01*
X11299Y10152D01*
X11351Y10129D01*
X11378Y10105D01*
X11404Y10057D01*
X11404Y9867D01*
X11666Y10629D02*
X11666Y10343D01*
X11666Y10486D02*
X11116Y10486D01*
X11194Y10438D01*
X11247Y10390D01*
X11273Y10343D01*
X22906Y13609D02*
X22740Y13871D01*
X22621Y13609D02*
X22621Y14159D01*
X22811Y14159D01*
X22859Y14133D01*
X22883Y14107D01*
X22906Y14054D01*
X22906Y13976D01*
X22883Y13923D01*
X22859Y13897D01*
X22811Y13871D01*
X22621Y13871D01*
X23383Y13609D02*
X23097Y13609D01*
X23240Y13609D02*
X23240Y14159D01*
X23192Y14080D01*
X23145Y14028D01*
X23097Y14002D01*
X23573Y14107D02*
X23597Y14133D01*
X23645Y14159D01*
X23764Y14159D01*
X23811Y14133D01*
X23835Y14107D01*
X23859Y14054D01*
X23859Y14002D01*
X23835Y13923D01*
X23549Y13609D01*
X23859Y13609D01*
X31568Y13609D02*
X31401Y13871D01*
X31282Y13609D02*
X31282Y14159D01*
X31473Y14159D01*
X31520Y14133D01*
X31544Y14107D01*
X31568Y14054D01*
X31568Y13976D01*
X31544Y13923D01*
X31520Y13897D01*
X31473Y13871D01*
X31282Y13871D01*
X32044Y13609D02*
X31758Y13609D01*
X31901Y13609D02*
X31901Y14159D01*
X31854Y14080D01*
X31806Y14028D01*
X31758Y14002D01*
X32473Y14159D02*
X32377Y14159D01*
X32330Y14133D01*
X32306Y14107D01*
X32258Y14028D01*
X32235Y13923D01*
X32235Y13714D01*
X32258Y13661D01*
X32282Y13635D01*
X32330Y13609D01*
X32425Y13609D01*
X32473Y13635D01*
X32496Y13661D01*
X32520Y13714D01*
X32520Y13845D01*
X32496Y13897D01*
X32473Y13923D01*
X32425Y13949D01*
X32330Y13949D01*
X32282Y13923D01*
X32258Y13897D01*
X32235Y13845D01*
X22906Y15577D02*
X22740Y15839D01*
X22621Y15577D02*
X22621Y16127D01*
X22811Y16127D01*
X22859Y16101D01*
X22883Y16075D01*
X22906Y16023D01*
X22906Y15944D01*
X22883Y15892D01*
X22859Y15866D01*
X22811Y15839D01*
X22621Y15839D01*
X23383Y15577D02*
X23097Y15577D01*
X23240Y15577D02*
X23240Y16127D01*
X23192Y16049D01*
X23145Y15997D01*
X23097Y15970D01*
X23549Y16127D02*
X23859Y16127D01*
X23692Y15918D01*
X23764Y15918D01*
X23811Y15892D01*
X23835Y15866D01*
X23859Y15813D01*
X23859Y15682D01*
X23835Y15630D01*
X23811Y15604D01*
X23764Y15577D01*
X23621Y15577D01*
X23573Y15604D01*
X23549Y15630D01*
X31568Y15577D02*
X31401Y15839D01*
X31282Y15577D02*
X31282Y16127D01*
X31473Y16127D01*
X31520Y16101D01*
X31544Y16075D01*
X31568Y16023D01*
X31568Y15944D01*
X31544Y15892D01*
X31520Y15866D01*
X31473Y15839D01*
X31282Y15839D01*
X32044Y15577D02*
X31758Y15577D01*
X31901Y15577D02*
X31901Y16127D01*
X31854Y16049D01*
X31806Y15997D01*
X31758Y15970D01*
X32211Y16127D02*
X32544Y16127D01*
X32330Y15577D01*
X22906Y17546D02*
X22740Y17808D01*
X22621Y17546D02*
X22621Y18096D01*
X22811Y18096D01*
X22859Y18070D01*
X22883Y18044D01*
X22906Y17991D01*
X22906Y17913D01*
X22883Y17860D01*
X22859Y17834D01*
X22811Y17808D01*
X22621Y17808D01*
X23383Y17546D02*
X23097Y17546D01*
X23240Y17546D02*
X23240Y18096D01*
X23192Y18017D01*
X23145Y17965D01*
X23097Y17939D01*
X23811Y17913D02*
X23811Y17546D01*
X23692Y18122D02*
X23573Y17729D01*
X23883Y17729D01*
X29836Y17703D02*
X29669Y17965D01*
X29550Y17703D02*
X29550Y18253D01*
X29740Y18253D01*
X29788Y18227D01*
X29812Y18201D01*
X29836Y18149D01*
X29836Y18070D01*
X29812Y18018D01*
X29788Y17992D01*
X29740Y17965D01*
X29550Y17965D01*
X30312Y17703D02*
X30026Y17703D01*
X30169Y17703D02*
X30169Y18253D01*
X30121Y18175D01*
X30074Y18122D01*
X30026Y18096D01*
X30597Y18018D02*
X30550Y18044D01*
X30526Y18070D01*
X30502Y18122D01*
X30502Y18149D01*
X30526Y18201D01*
X30550Y18227D01*
X30597Y18253D01*
X30693Y18253D01*
X30740Y18227D01*
X30764Y18201D01*
X30788Y18149D01*
X30788Y18122D01*
X30764Y18070D01*
X30740Y18044D01*
X30693Y18018D01*
X30597Y18018D01*
X30550Y17992D01*
X30526Y17965D01*
X30502Y17913D01*
X30502Y17808D01*
X30526Y17756D01*
X30550Y17730D01*
X30597Y17703D01*
X30693Y17703D01*
X30740Y17730D01*
X30764Y17756D01*
X30788Y17808D01*
X30788Y17913D01*
X30764Y17965D01*
X30740Y17992D01*
X30693Y18018D01*
G54D13*
X28848Y1224D02*
X28848Y1824D01*
X28991Y1824D01*
X29077Y1796D01*
X29134Y1738D01*
X29162Y1681D01*
X29191Y1567D01*
X29191Y1481D01*
X29162Y1367D01*
X29134Y1310D01*
X29077Y1253D01*
X28991Y1224D01*
X28848Y1224D01*
X29391Y1824D02*
X29791Y1824D01*
X29534Y1224D01*
X13687Y1903D02*
X14087Y1303D01*
X14087Y1903D02*
X13687Y1303D01*
X14630Y1303D02*
X14287Y1303D01*
X14458Y1303D02*
X14458Y1903D01*
X14401Y1817D01*
X14344Y1760D01*
X14287Y1731D01*
G54D18*
X6806Y3641D02*
X6206Y3641D01*
X6206Y3737D01*
X6235Y3794D01*
X6292Y3832D01*
X6349Y3851D01*
X6464Y3870D01*
X6549Y3870D01*
X6664Y3851D01*
X6721Y3832D01*
X6778Y3794D01*
X6806Y3737D01*
X6806Y3641D01*
X6806Y4251D02*
X6806Y4022D01*
X6806Y4137D02*
X6206Y4137D01*
X6292Y4098D01*
X6349Y4060D01*
X6378Y4022D01*
G54D13*
G54D18*
X16240Y15634D02*
X16240Y16234D01*
X16335Y16234D01*
X16392Y16205D01*
X16430Y16148D01*
X16449Y16091D01*
X16468Y15976D01*
X16468Y15891D01*
X16449Y15776D01*
X16430Y15719D01*
X16392Y15662D01*
X16335Y15634D01*
X16240Y15634D01*
X16811Y16034D02*
X16811Y15634D01*
X16716Y16262D02*
X16621Y15834D01*
X16868Y15834D01*
G54D13*
G54D18*
X16240Y13665D02*
X16240Y14265D01*
X16335Y14265D01*
X16392Y14237D01*
X16430Y14179D01*
X16449Y14122D01*
X16468Y14008D01*
X16468Y13922D01*
X16449Y13808D01*
X16430Y13751D01*
X16392Y13694D01*
X16335Y13665D01*
X16240Y13665D01*
X16602Y14265D02*
X16849Y14265D01*
X16716Y14037D01*
X16773Y14037D01*
X16811Y14008D01*
X16830Y13979D01*
X16849Y13922D01*
X16849Y13779D01*
X16830Y13722D01*
X16811Y13694D01*
X16773Y13665D01*
X16659Y13665D01*
X16621Y13694D01*
X16602Y13722D01*
G54D13*
G54D18*
X8775Y9940D02*
X8175Y9940D01*
X8175Y10036D01*
X8203Y10093D01*
X8261Y10131D01*
X8318Y10150D01*
X8432Y10169D01*
X8518Y10169D01*
X8632Y10150D01*
X8689Y10131D01*
X8746Y10093D01*
X8775Y10036D01*
X8775Y9940D01*
X8175Y10512D02*
X8175Y10436D01*
X8203Y10398D01*
X8232Y10379D01*
X8318Y10340D01*
X8432Y10321D01*
X8661Y10321D01*
X8718Y10340D01*
X8746Y10360D01*
X8775Y10398D01*
X8775Y10474D01*
X8746Y10512D01*
X8718Y10531D01*
X8661Y10550D01*
X8518Y10550D01*
X8461Y10531D01*
X8432Y10512D01*
X8403Y10474D01*
X8403Y10398D01*
X8432Y10360D01*
X8461Y10340D01*
X8518Y10321D01*
G54D13*
G54D18*
X6806Y9940D02*
X6206Y9940D01*
X6206Y10036D01*
X6235Y10093D01*
X6292Y10131D01*
X6349Y10150D01*
X6464Y10169D01*
X6549Y10169D01*
X6664Y10150D01*
X6721Y10131D01*
X6778Y10093D01*
X6806Y10036D01*
X6806Y9940D01*
X6206Y10531D02*
X6206Y10340D01*
X6492Y10321D01*
X6464Y10340D01*
X6435Y10379D01*
X6435Y10474D01*
X6464Y10512D01*
X6492Y10531D01*
X6549Y10550D01*
X6692Y10550D01*
X6749Y10531D01*
X6778Y10512D01*
X6806Y10474D01*
X6806Y10379D01*
X6778Y10340D01*
X6749Y10321D01*
G54D13*
G54D18*
X8775Y3641D02*
X8175Y3641D01*
X8175Y3737D01*
X8203Y3794D01*
X8261Y3832D01*
X8318Y3851D01*
X8432Y3870D01*
X8518Y3870D01*
X8632Y3851D01*
X8689Y3832D01*
X8746Y3794D01*
X8775Y3737D01*
X8775Y3641D01*
X8232Y4022D02*
X8203Y4041D01*
X8175Y4079D01*
X8175Y4175D01*
X8203Y4213D01*
X8232Y4232D01*
X8289Y4251D01*
X8346Y4251D01*
X8432Y4232D01*
X8775Y4003D01*
X8775Y4251D01*
G54D13*
G54D15*
X18375Y18396D02*
X18360Y18382D01*
X18318Y18368D01*
X18289Y18368D01*
X18246Y18382D01*
X18218Y18411D01*
X18203Y18439D01*
X18189Y18496D01*
X18189Y18539D01*
X18203Y18596D01*
X18218Y18625D01*
X18246Y18653D01*
X18289Y18668D01*
X18318Y18668D01*
X18360Y18653D01*
X18375Y18639D01*
X18489Y18639D02*
X18503Y18653D01*
X18532Y18668D01*
X18603Y18668D01*
X18632Y18653D01*
X18646Y18639D01*
X18660Y18611D01*
X18660Y18582D01*
X18646Y18539D01*
X18475Y18368D01*
X18660Y18368D01*
G54D19*
X17816Y17444D02*
X17816Y17673D01*
X17930Y17559D02*
X17702Y17559D01*
G54D17*
G54D15*
X10579Y16428D02*
X10565Y16414D01*
X10522Y16399D01*
X10494Y16399D01*
X10451Y16414D01*
X10422Y16442D01*
X10408Y16471D01*
X10394Y16528D01*
X10394Y16571D01*
X10408Y16628D01*
X10422Y16656D01*
X10451Y16685D01*
X10494Y16699D01*
X10522Y16699D01*
X10565Y16685D01*
X10579Y16671D01*
X10837Y16599D02*
X10837Y16399D01*
X10765Y16714D02*
X10694Y16499D01*
X10879Y16499D01*
G54D19*
X11854Y14545D02*
X12082Y14545D01*
X11968Y14431D02*
X11968Y14659D01*
G54D17*
G54D15*
X8217Y16428D02*
X8203Y16414D01*
X8160Y16399D01*
X8132Y16399D01*
X8089Y16414D01*
X8060Y16442D01*
X8046Y16471D01*
X8032Y16528D01*
X8032Y16571D01*
X8046Y16628D01*
X8060Y16656D01*
X8089Y16685D01*
X8132Y16699D01*
X8160Y16699D01*
X8203Y16685D01*
X8217Y16671D01*
X8317Y16699D02*
X8503Y16699D01*
X8403Y16585D01*
X8446Y16585D01*
X8474Y16571D01*
X8489Y16556D01*
X8503Y16528D01*
X8503Y16456D01*
X8489Y16428D01*
X8474Y16414D01*
X8446Y16399D01*
X8360Y16399D01*
X8332Y16414D01*
X8317Y16428D01*
G54D19*
X6814Y14545D02*
X7043Y14545D01*
X6929Y14431D02*
X6929Y14659D01*
G54D17*
X13489Y5760D02*
X13508Y5741D01*
X13527Y5683D01*
X13527Y5645D01*
X13508Y5588D01*
X13470Y5550D01*
X13432Y5531D01*
X13355Y5512D01*
X13298Y5512D01*
X13222Y5531D01*
X13184Y5550D01*
X13146Y5588D01*
X13127Y5645D01*
X13127Y5683D01*
X13146Y5741D01*
X13165Y5760D01*
X13127Y5893D02*
X13127Y6160D01*
X13527Y5988D01*
X13489Y2689D02*
X13508Y2670D01*
X13527Y2613D01*
X13527Y2574D01*
X13508Y2517D01*
X13470Y2479D01*
X13432Y2460D01*
X13355Y2441D01*
X13298Y2441D01*
X13222Y2460D01*
X13184Y2479D01*
X13146Y2517D01*
X13127Y2574D01*
X13127Y2613D01*
X13146Y2670D01*
X13165Y2689D01*
X13127Y3032D02*
X13127Y2955D01*
X13146Y2917D01*
X13165Y2898D01*
X13222Y2860D01*
X13298Y2841D01*
X13451Y2841D01*
X13489Y2860D01*
X13508Y2879D01*
X13527Y2917D01*
X13527Y2994D01*
X13508Y3032D01*
X13489Y3051D01*
X13451Y3070D01*
X13355Y3070D01*
X13317Y3051D01*
X13298Y3032D01*
X13279Y2994D01*
X13279Y2917D01*
X13298Y2879D01*
X13317Y2860D01*
X13355Y2841D01*
X11841Y16175D02*
X11860Y16156D01*
X11879Y16098D01*
X11879Y16060D01*
X11860Y16003D01*
X11822Y15965D01*
X11784Y15946D01*
X11707Y15927D01*
X11650Y15927D01*
X11574Y15946D01*
X11536Y15965D01*
X11498Y16003D01*
X11479Y16060D01*
X11479Y16098D01*
X11498Y16156D01*
X11517Y16175D01*
X11879Y16556D02*
X11879Y16327D01*
X11879Y16441D02*
X11479Y16441D01*
X11536Y16403D01*
X11574Y16365D01*
X11593Y16327D01*
X4264Y16392D02*
X4244Y16373D01*
X4187Y16354D01*
X4149Y16354D01*
X4092Y16373D01*
X4054Y16411D01*
X4035Y16449D01*
X4016Y16525D01*
X4016Y16583D01*
X4035Y16659D01*
X4054Y16697D01*
X4092Y16735D01*
X4149Y16754D01*
X4187Y16754D01*
X4244Y16735D01*
X4264Y16716D01*
X4625Y16754D02*
X4435Y16754D01*
X4416Y16564D01*
X4435Y16583D01*
X4473Y16602D01*
X4568Y16602D01*
X4606Y16583D01*
X4625Y16564D01*
X4644Y16525D01*
X4644Y16430D01*
X4625Y16392D01*
X4606Y16373D01*
X4568Y16354D01*
X4473Y16354D01*
X4435Y16373D01*
X4416Y16392D01*
G54D10*
X36717Y1554D02*
X36717Y1947D01*
X36867Y1947D01*
X36904Y1929D01*
X36923Y1910D01*
X36942Y1872D01*
X36942Y1816D01*
X36923Y1779D01*
X36904Y1760D01*
X36867Y1741D01*
X36717Y1741D01*
X37279Y1816D02*
X37279Y1554D01*
X37185Y1966D02*
X37092Y1685D01*
X37335Y1685D01*
X6087Y11632D02*
X6087Y12026D01*
X6237Y12026D01*
X6274Y12007D01*
X6293Y11989D01*
X6312Y11951D01*
X6312Y11895D01*
X6293Y11857D01*
X6274Y11839D01*
X6237Y11820D01*
X6087Y11820D01*
X6687Y11632D02*
X6462Y11632D01*
X6574Y11632D02*
X6574Y12026D01*
X6537Y11970D01*
X6499Y11932D01*
X6462Y11914D01*
X6087Y2262D02*
X6087Y2656D01*
X6237Y2656D01*
X6274Y2637D01*
X6293Y2619D01*
X6312Y2581D01*
X6312Y2525D01*
X6293Y2487D01*
X6274Y2469D01*
X6237Y2450D01*
X6087Y2450D01*
X6443Y2656D02*
X6687Y2656D01*
X6556Y2506D01*
X6612Y2506D01*
X6649Y2487D01*
X6668Y2469D01*
X6687Y2431D01*
X6687Y2337D01*
X6668Y2300D01*
X6649Y2281D01*
X6612Y2262D01*
X6499Y2262D01*
X6462Y2281D01*
X6443Y2300D01*
X6087Y6987D02*
X6087Y7380D01*
X6237Y7380D01*
X6274Y7362D01*
X6293Y7343D01*
X6312Y7305D01*
X6312Y7249D01*
X6293Y7212D01*
X6274Y7193D01*
X6237Y7174D01*
X6087Y7174D01*
X6462Y7343D02*
X6481Y7362D01*
X6518Y7380D01*
X6612Y7380D01*
X6649Y7362D01*
X6668Y7343D01*
X6687Y7305D01*
X6687Y7268D01*
X6668Y7212D01*
X6443Y6987D01*
X6687Y6987D01*
G54D17*
X7962Y18438D02*
X7962Y17953D01*
X7982Y17895D01*
X8001Y17867D01*
X8039Y17838D01*
X8115Y17838D01*
X8153Y17867D01*
X8172Y17895D01*
X8191Y17953D01*
X8191Y18438D01*
X8591Y17838D02*
X8362Y17838D01*
X8477Y17838D02*
X8477Y18438D01*
X8439Y18353D01*
X8401Y18295D01*
X8362Y18267D01*
G54D20*
X16439Y2562D02*
X17006Y2562D01*
X17072Y2584D01*
X17106Y2605D01*
X17139Y2648D01*
X17139Y2734D01*
X17106Y2776D01*
X17072Y2798D01*
X17006Y2819D01*
X16439Y2819D01*
X16506Y3012D02*
X16472Y3034D01*
X16439Y3076D01*
X16439Y3184D01*
X16472Y3226D01*
X16506Y3248D01*
X16572Y3269D01*
X16639Y3269D01*
X16739Y3248D01*
X17139Y2991D01*
X17139Y3269D01*
G54D13*
G54D18*
X33090Y1000D02*
X33090Y1400D01*
X33242Y1400D01*
X33281Y1381D01*
X33300Y1362D01*
X33319Y1323D01*
X33319Y1266D01*
X33300Y1228D01*
X33281Y1209D01*
X33242Y1190D01*
X33090Y1190D01*
X33681Y1400D02*
X33490Y1400D01*
X33471Y1209D01*
X33490Y1228D01*
X33528Y1247D01*
X33623Y1247D01*
X33662Y1228D01*
X33681Y1209D01*
X33700Y1171D01*
X33700Y1076D01*
X33681Y1038D01*
X33662Y1019D01*
X33623Y1000D01*
X33528Y1000D01*
X33490Y1019D01*
X33471Y1038D01*
X33169Y18322D02*
X33169Y18722D01*
X33321Y18722D01*
X33359Y18703D01*
X33378Y18684D01*
X33397Y18646D01*
X33397Y18589D01*
X33378Y18551D01*
X33359Y18532D01*
X33321Y18513D01*
X33169Y18513D01*
X33740Y18722D02*
X33664Y18722D01*
X33626Y18703D01*
X33607Y18684D01*
X33569Y18627D01*
X33550Y18551D01*
X33550Y18399D01*
X33569Y18361D01*
X33588Y18342D01*
X33626Y18322D01*
X33702Y18322D01*
X33740Y18342D01*
X33759Y18361D01*
X33778Y18399D01*
X33778Y18494D01*
X33759Y18532D01*
X33740Y18551D01*
X33702Y18570D01*
X33626Y18570D01*
X33588Y18551D01*
X33569Y18532D01*
X33550Y18494D01*
X13090Y11648D02*
X13090Y12048D01*
X13242Y12048D01*
X13281Y12029D01*
X13300Y12010D01*
X13319Y11972D01*
X13319Y11915D01*
X13300Y11877D01*
X13281Y11858D01*
X13242Y11839D01*
X13090Y11839D01*
X13452Y12048D02*
X13719Y12048D01*
X13547Y11648D01*
G54D17*
X11272Y3615D02*
X11010Y3448D01*
X11272Y3329D02*
X10722Y3329D01*
X10722Y3520D01*
X10748Y3567D01*
X10774Y3591D01*
X10827Y3615D01*
X10905Y3615D01*
X10958Y3591D01*
X10984Y3567D01*
X11010Y3520D01*
X11010Y3329D01*
X10774Y3806D02*
X10748Y3829D01*
X10722Y3877D01*
X10722Y3996D01*
X10748Y4044D01*
X10774Y4067D01*
X10827Y4091D01*
X10879Y4091D01*
X10958Y4067D01*
X11272Y3782D01*
X11272Y4091D01*
X10722Y4401D02*
X10722Y4448D01*
X10748Y4496D01*
X10774Y4520D01*
X10827Y4544D01*
X10931Y4567D01*
X11062Y4567D01*
X11167Y4544D01*
X11220Y4520D01*
X11246Y4496D01*
X11272Y4448D01*
X11272Y4401D01*
X11246Y4353D01*
X11220Y4329D01*
X11167Y4306D01*
X11062Y4282D01*
X10931Y4282D01*
X10827Y4306D01*
X10774Y4329D01*
X10748Y4353D01*
X10722Y4401D01*
X26300Y7418D02*
X26262Y7437D01*
X26224Y7475D01*
X26167Y7533D01*
X26129Y7552D01*
X26090Y7552D01*
X26110Y7456D02*
X26071Y7475D01*
X26033Y7513D01*
X26014Y7590D01*
X26014Y7723D01*
X26033Y7799D01*
X26071Y7837D01*
X26110Y7856D01*
X26186Y7856D01*
X26224Y7837D01*
X26262Y7799D01*
X26281Y7723D01*
X26281Y7590D01*
X26262Y7513D01*
X26224Y7475D01*
X26186Y7456D01*
X26110Y7456D01*
X26414Y7856D02*
X26662Y7856D01*
X26529Y7704D01*
X26586Y7704D01*
X26624Y7685D01*
X26643Y7666D01*
X26662Y7628D01*
X26662Y7533D01*
X26643Y7494D01*
X26624Y7475D01*
X26586Y7456D01*
X26471Y7456D01*
X26433Y7475D01*
X26414Y7494D01*
X28544Y17103D02*
X28506Y17122D01*
X28468Y17160D01*
X28411Y17218D01*
X28373Y17237D01*
X28335Y17237D01*
X28354Y17141D02*
X28316Y17160D01*
X28277Y17199D01*
X28258Y17275D01*
X28258Y17408D01*
X28277Y17484D01*
X28316Y17522D01*
X28354Y17541D01*
X28430Y17541D01*
X28468Y17522D01*
X28506Y17484D01*
X28525Y17408D01*
X28525Y17275D01*
X28506Y17199D01*
X28468Y17160D01*
X28430Y17141D01*
X28354Y17141D01*
X28754Y17370D02*
X28716Y17389D01*
X28696Y17408D01*
X28677Y17446D01*
X28677Y17465D01*
X28696Y17503D01*
X28716Y17522D01*
X28754Y17541D01*
X28830Y17541D01*
X28868Y17522D01*
X28887Y17503D01*
X28906Y17465D01*
X28906Y17446D01*
X28887Y17408D01*
X28868Y17389D01*
X28830Y17370D01*
X28754Y17370D01*
X28716Y17351D01*
X28696Y17332D01*
X28677Y17294D01*
X28677Y17218D01*
X28696Y17179D01*
X28716Y17160D01*
X28754Y17141D01*
X28830Y17141D01*
X28868Y17160D01*
X28887Y17179D01*
X28906Y17218D01*
X28906Y17294D01*
X28887Y17332D01*
X28868Y17351D01*
X28830Y17370D01*
X26379Y11395D02*
X26341Y11414D01*
X26303Y11452D01*
X26245Y11509D01*
X26207Y11528D01*
X26169Y11528D01*
X26188Y11433D02*
X26150Y11452D01*
X26112Y11490D01*
X26093Y11566D01*
X26093Y11699D01*
X26112Y11776D01*
X26150Y11814D01*
X26188Y11833D01*
X26264Y11833D01*
X26303Y11814D01*
X26341Y11776D01*
X26360Y11699D01*
X26360Y11566D01*
X26341Y11490D01*
X26303Y11452D01*
X26264Y11433D01*
X26188Y11433D01*
X26722Y11833D02*
X26531Y11833D01*
X26512Y11642D01*
X26531Y11661D01*
X26569Y11680D01*
X26664Y11680D01*
X26703Y11661D01*
X26722Y11642D01*
X26741Y11604D01*
X26741Y11509D01*
X26722Y11471D01*
X26703Y11452D01*
X26664Y11433D01*
X26569Y11433D01*
X26531Y11452D01*
X26512Y11471D01*
X26339Y15292D02*
X26301Y15311D01*
X26263Y15349D01*
X26206Y15407D01*
X26168Y15426D01*
X26130Y15426D01*
X26149Y15330D02*
X26111Y15349D01*
X26073Y15388D01*
X26054Y15464D01*
X26054Y15597D01*
X26073Y15673D01*
X26111Y15711D01*
X26149Y15730D01*
X26225Y15730D01*
X26263Y15711D01*
X26301Y15673D01*
X26320Y15597D01*
X26320Y15464D01*
X26301Y15388D01*
X26263Y15349D01*
X26225Y15330D01*
X26149Y15330D01*
X26454Y15730D02*
X26720Y15730D01*
X26549Y15330D01*
X28544Y5017D02*
X28506Y5036D01*
X28468Y5074D01*
X28411Y5131D01*
X28373Y5150D01*
X28335Y5150D01*
X28354Y5055D02*
X28316Y5074D01*
X28277Y5112D01*
X28258Y5188D01*
X28258Y5321D01*
X28277Y5398D01*
X28316Y5436D01*
X28354Y5455D01*
X28430Y5455D01*
X28468Y5436D01*
X28506Y5398D01*
X28525Y5321D01*
X28525Y5188D01*
X28506Y5112D01*
X28468Y5074D01*
X28430Y5055D01*
X28354Y5055D01*
X28677Y5417D02*
X28696Y5436D01*
X28735Y5455D01*
X28830Y5455D01*
X28868Y5436D01*
X28887Y5417D01*
X28906Y5379D01*
X28906Y5340D01*
X28887Y5283D01*
X28658Y5055D01*
X28906Y5055D01*
X28544Y8836D02*
X28506Y8855D01*
X28468Y8893D01*
X28411Y8950D01*
X28373Y8969D01*
X28335Y8969D01*
X28354Y8874D02*
X28316Y8893D01*
X28277Y8931D01*
X28258Y9007D01*
X28258Y9140D01*
X28277Y9217D01*
X28316Y9255D01*
X28354Y9274D01*
X28430Y9274D01*
X28468Y9255D01*
X28506Y9217D01*
X28525Y9140D01*
X28525Y9007D01*
X28506Y8931D01*
X28468Y8893D01*
X28430Y8874D01*
X28354Y8874D01*
X28868Y9140D02*
X28868Y8874D01*
X28773Y9293D02*
X28677Y9007D01*
X28925Y9007D01*
X28583Y12930D02*
X28545Y12949D01*
X28507Y12987D01*
X28450Y13044D01*
X28412Y13063D01*
X28374Y13063D01*
X28393Y12968D02*
X28355Y12987D01*
X28317Y13025D01*
X28298Y13101D01*
X28298Y13235D01*
X28317Y13311D01*
X28355Y13349D01*
X28393Y13368D01*
X28469Y13368D01*
X28507Y13349D01*
X28545Y13311D01*
X28564Y13235D01*
X28564Y13101D01*
X28545Y13025D01*
X28507Y12987D01*
X28469Y12968D01*
X28393Y12968D01*
X28907Y13368D02*
X28831Y13368D01*
X28793Y13349D01*
X28774Y13330D01*
X28736Y13273D01*
X28717Y13197D01*
X28717Y13044D01*
X28736Y13006D01*
X28755Y12987D01*
X28793Y12968D01*
X28869Y12968D01*
X28907Y12987D01*
X28926Y13006D01*
X28945Y13044D01*
X28945Y13140D01*
X28926Y13178D01*
X28907Y13197D01*
X28869Y13216D01*
X28793Y13216D01*
X28755Y13197D01*
X28736Y13178D01*
X28717Y13140D01*
X26418Y3560D02*
X26380Y3579D01*
X26342Y3617D01*
X26285Y3674D01*
X26247Y3693D01*
X26209Y3693D01*
X26228Y3598D02*
X26190Y3617D01*
X26151Y3655D01*
X26132Y3731D01*
X26132Y3865D01*
X26151Y3941D01*
X26190Y3979D01*
X26228Y3998D01*
X26304Y3998D01*
X26342Y3979D01*
X26380Y3941D01*
X26399Y3865D01*
X26399Y3731D01*
X26380Y3655D01*
X26342Y3617D01*
X26304Y3598D01*
X26228Y3598D01*
X26780Y3598D02*
X26551Y3598D01*
X26666Y3598D02*
X26666Y3998D01*
X26628Y3941D01*
X26590Y3903D01*
X26551Y3884D01*
M02*
